<?xml version="1.0" encoding="UTF-8"?>
<svg id="Layer_2" data-name="Layer 2" xmlns="http://www.w3.org/2000/svg" viewBox="0 0 1359 1170">
  <path d="M701.09,258.54c-18.33,21.11-10.67,59.78-10.67,59.78,0,0-42.33,1.06-70.5,37.56-32.09,41.59-28.94,99.94-28.94,99.94,0,0-16.89-33.61-3.89-88.94,0,0-30.11,36.11-52.78,110.44,0,0,6.11-31.44-10.22-41.11,0,0,6.67,49-48.33,49s-135.33-38-123.33-130.33c0,0-62.33,82.67,6.67,175.33,0,0-75.67-49.33-73-117.33s33.67-111.67,33.67-111.67c0,0-101.67,14.67-103.33-93s23.67-159.67,44.33-190.67c0,0-19.33-2-108.33,69.67,0,0-51.33,46.67-73.33,82.33,0,0-9.36,114.06,55.33,191.67,65.67,78.78,101,145,101,145,0,0-71.56-49.56-108.33-99.33-41.8-56.57-58.11-79.78-85.22-169.11,0,0-40.44,87.44-30.78,200.11,0,0,52.67,129.33,206.67,182.33,0,0-19.22,6.22-168.11-48.22,0,0,30.44,55.78,46.94,76.69,39.85,50.52,57.95,76.87,131.5,79.53,0,0,132.22,1.78,152,22.33,0,0-103.33-9.22-162.44,5.44,0,0,117.56,79.33,277.11,79.89,0,0-29.11-52.33-64.67-87.89,0,0,53.67,16.22,93.67,74.89,0,0,38.33-70.33,60.33-97.33,0,0-13.78,115.44-113.78,209.11,0,0,50.89,39.11,79.78,70,0,0,37.33-30.56,69.33-72,0,0-10,72.22-35.78,105.11,0,0,18.11,18.11,34.11,41.78,0,0,11.22-7.33,27.67-29.11,0,0,0,23.78-11.33,49.44,0,0,13.82,17,45.41,64,0,0-30.74-213.67-38.74-260.67s3.67-68.33,15.33-88.67,19.67-41.67,19-69.67-2.67-75-14-124.67-25.39-90.11-25.39-90.11c0,0-8.44-32-.89-60.44,2.89-10.89,29.33-87.56,108.61-146.44,0,0-24.56-13.11-33.22-29.11s-9.11-35.56-9.11-35.56Z"/>
  <path d="M708.37,220.48s31.47,38.27,122.5,84.11c94,47.33,47.5,150.89,47.5,150.89,0,0-35-43.67-91-47.33s-86.33,67-25.67,115.67c0,0-15.67-28.67,5.33-55.33,0,0,1.49,48.02,71,44.67,78.28-3.78,177.39-72.89,171-163,0,0,66.61,73-7.17,176.56,0,0,107.5-79.89,41.17-231.56,0,0,108.67,22,104.67-105s-46-178.33-46-178.33c0,0,99.33,38.67,182.33,155.33,0,0,16.96,110.93-82.33,221-52.72,58.44-69.72,108.78-69.72,108.78,0,0,40.39-15.44,106.72-98.11s81-162.67,81-162.67c0,0,43.33,81,32.33,201.67,0,0-59.5,127.33-207.72,176.89,0,0,72.72-9.56,168.39-47.89,0,0-39.77,76.71-81,114.67-32.94,30.33-51.11,37.67-79,39.33-34.14,2.04-113.67-5.67-175,25,0,0,89.33-9.67,166.67,4,0,0-95.33,71.33-278,80,0,0,34.22-53.83,72.39-94.33,0,0-63.67,29.33-102.67,83,0,0-29.33-65.83-59-100.17,0,0,27.33,145.94,115.56,208.61,0,0-59.56,49.78-79.56,71.56,0,0-48.44-40.67-71.56-73.78,0,0,13.56,79.78,36.44,109.33,0,0-20,21.78-33.56,39.56,0,0-16.89-14.22-28.89-33.33,0,0-.44,32,12.67,55.11,0,0-34.44,45.67-43.78,68.5,0,0,6.5-117.37,20.44-304.61,9.33-125.33,47.67-123.33,47.33-270.67l-14-1.33s-14.33.67-22-16.67-24-65.67-22.33-123,28.33-95,43.67-106c0,0,29.33,31,81.67,44,0,0-39.67-26.33-42.33-49.33,0,0,33.67-2.67,73,23.33,0,0-10-25.33-69-46s-73-45.89-72.5-93.11Z"/>
</svg>